<mxfile host="65bd71144e" modified="2024-05-31T07:45:09.318Z" agent="Mozilla/5.0 (Windows NT 10.0; Win64; x64) AppleWebKit/537.36 (KHTML, like Gecko) Code/1.89.1 Chrome/120.0.6099.291 Electron/28.2.8 Safari/537.36" version="24.4.10" etag="-3_B4VnA8f7bFnRB9mjN" type="embed" pages="2">
    <diagram id="bOTx9Srq3Wt2K9H6zTvH" name="ページ1">
        <mxGraphModel dx="711" dy="453" grid="1" gridSize="10" guides="1" tooltips="1" connect="1" arrows="1" fold="1" page="1" pageScale="1" pageWidth="827" pageHeight="1169" math="0" shadow="0">
            <root>
                <mxCell id="0"/>
                <mxCell id="1" parent="0"/>
                <mxCell id="21" value="" style="edgeStyle=none;html=1;" edge="1" parent="1" source="2" target="20">
                    <mxGeometry relative="1" as="geometry"/>
                </mxCell>
                <mxCell id="2" value="Q&amp;amp;A一覧&lt;div&gt;[　　　]検索&lt;/div&gt;&lt;div style=&quot;text-align: left;&quot;&gt;・&lt;/div&gt;&lt;div style=&quot;text-align: left;&quot;&gt;・&lt;/div&gt;&lt;div style=&quot;text-align: left;&quot;&gt;・&lt;/div&gt;&lt;div&gt;&lt;br&gt;&lt;/div&gt;" style="whiteSpace=wrap;html=1;" vertex="1" parent="1">
                    <mxGeometry x="294" y="172" width="120" height="110" as="geometry"/>
                </mxCell>
                <mxCell id="14" value="" style="edgeStyle=none;html=1;" edge="1" parent="1" source="12" target="2">
                    <mxGeometry relative="1" as="geometry"/>
                </mxCell>
                <mxCell id="12" value="ユーザー" style="ellipse;whiteSpace=wrap;html=1;" vertex="1" parent="1">
                    <mxGeometry x="77" y="187" width="80" height="80" as="geometry"/>
                </mxCell>
                <mxCell id="15" value="Q&amp;amp;A一覧にアクセス" style="text;html=1;align=center;verticalAlign=middle;resizable=0;points=[];autosize=1;strokeColor=none;fillColor=none;" vertex="1" parent="1">
                    <mxGeometry x="157" y="200" width="130" height="30" as="geometry"/>
                </mxCell>
                <mxCell id="18" value="" style="edgeStyle=none;html=1;" edge="1" parent="1" source="16" target="2">
                    <mxGeometry relative="1" as="geometry"/>
                </mxCell>
                <mxCell id="16" value="データベース" style="whiteSpace=wrap;html=1;" vertex="1" parent="1">
                    <mxGeometry x="294" y="387" width="120" height="60" as="geometry"/>
                </mxCell>
                <mxCell id="19" value="一覧を取得" style="text;html=1;align=center;verticalAlign=middle;resizable=0;points=[];autosize=1;strokeColor=none;fillColor=none;" vertex="1" parent="1">
                    <mxGeometry x="350" y="320" width="80" height="30" as="geometry"/>
                </mxCell>
                <mxCell id="28" style="edgeStyle=none;html=1;exitX=0.5;exitY=0;exitDx=0;exitDy=0;" edge="1" parent="1" source="20">
                    <mxGeometry relative="1" as="geometry">
                        <mxPoint x="360" y="170" as="targetPoint"/>
                        <mxPoint x="554" y="137" as="sourcePoint"/>
                        <Array as="points">
                            <mxPoint x="554" y="120"/>
                            <mxPoint x="360" y="120"/>
                        </Array>
                    </mxGeometry>
                </mxCell>
                <mxCell id="20" value="検索結果&lt;div&gt;&lt;br&gt;&lt;/div&gt;&lt;div&gt;TOPへ&lt;/div&gt;" style="whiteSpace=wrap;html=1;" vertex="1" parent="1">
                    <mxGeometry x="494" y="197" width="120" height="60" as="geometry"/>
                </mxCell>
                <mxCell id="22" value="検索" style="text;html=1;align=center;verticalAlign=middle;resizable=0;points=[];autosize=1;strokeColor=none;fillColor=none;" vertex="1" parent="1">
                    <mxGeometry x="424" y="200" width="50" height="30" as="geometry"/>
                </mxCell>
            </root>
        </mxGraphModel>
    </diagram>
    <diagram id="ofn-8f0Rw5qN5hTPRise" name="ページ2">
        <mxGraphModel dx="1007" dy="642" grid="1" gridSize="10" guides="1" tooltips="1" connect="1" arrows="1" fold="1" page="1" pageScale="1" pageWidth="827" pageHeight="1169" math="0" shadow="0">
            <root>
                <mxCell id="0"/>
                <mxCell id="1" parent="0"/>
                <mxCell id="_V5K8JmtVgEs9-8B0f6_-37" value="" style="edgeStyle=none;html=1;" edge="1" parent="1" source="_V5K8JmtVgEs9-8B0f6_-15" target="_V5K8JmtVgEs9-8B0f6_-36">
                    <mxGeometry relative="1" as="geometry"/>
                </mxCell>
                <mxCell id="_V5K8JmtVgEs9-8B0f6_-15" value="Q&amp;amp;A一覧&lt;div&gt;[　　　]検索&lt;/div&gt;&lt;div style=&quot;text-align: left;&quot;&gt;・&lt;/div&gt;&lt;div style=&quot;text-align: left;&quot;&gt;・&lt;/div&gt;&lt;div style=&quot;text-align: left;&quot;&gt;・&lt;/div&gt;&lt;div&gt;&lt;br&gt;&lt;/div&gt;" style="whiteSpace=wrap;html=1;" vertex="1" parent="1">
                    <mxGeometry x="430" y="212" width="120" height="110" as="geometry"/>
                </mxCell>
                <mxCell id="_V5K8JmtVgEs9-8B0f6_-17" value="" style="edgeStyle=none;html=1;" edge="1" parent="1" source="_V5K8JmtVgEs9-8B0f6_-18">
                    <mxGeometry relative="1" as="geometry">
                        <mxPoint x="242" y="267" as="targetPoint"/>
                    </mxGeometry>
                </mxCell>
                <mxCell id="_V5K8JmtVgEs9-8B0f6_-18" value="ユーザー" style="ellipse;whiteSpace=wrap;html=1;" vertex="1" parent="1">
                    <mxGeometry x="22" y="227" width="80" height="80" as="geometry"/>
                </mxCell>
                <mxCell id="_V5K8JmtVgEs9-8B0f6_-19" value="Q&amp;amp;A一覧にアクセス&lt;div&gt;（GET）&lt;/div&gt;" style="text;html=1;align=center;verticalAlign=middle;resizable=0;points=[];autosize=1;strokeColor=none;fillColor=none;" vertex="1" parent="1">
                    <mxGeometry x="102" y="234" width="130" height="40" as="geometry"/>
                </mxCell>
                <mxCell id="_V5K8JmtVgEs9-8B0f6_-20" value="" style="edgeStyle=none;html=1;" edge="1" parent="1">
                    <mxGeometry relative="1" as="geometry">
                        <mxPoint x="300" y="402" as="sourcePoint"/>
                        <mxPoint x="300" y="297" as="targetPoint"/>
                    </mxGeometry>
                </mxCell>
                <mxCell id="bsg9oruOdnQIcvXcsl58-2" value="" style="edgeStyle=none;html=1;" edge="1" parent="1" source="_V5K8JmtVgEs9-8B0f6_-21" target="_V5K8JmtVgEs9-8B0f6_-29">
                    <mxGeometry relative="1" as="geometry"/>
                </mxCell>
                <mxCell id="_V5K8JmtVgEs9-8B0f6_-21" value="データベース" style="whiteSpace=wrap;html=1;" vertex="1" parent="1">
                    <mxGeometry x="240" y="400" width="120" height="60" as="geometry"/>
                </mxCell>
                <mxCell id="_V5K8JmtVgEs9-8B0f6_-22" value="一覧を取得" style="text;html=1;align=center;verticalAlign=middle;resizable=0;points=[];autosize=1;strokeColor=none;fillColor=none;" vertex="1" parent="1">
                    <mxGeometry x="220" y="340" width="80" height="30" as="geometry"/>
                </mxCell>
                <mxCell id="_V5K8JmtVgEs9-8B0f6_-23" style="edgeStyle=none;html=1;exitX=0.5;exitY=0;exitDx=0;exitDy=0;" edge="1" parent="1" source="_V5K8JmtVgEs9-8B0f6_-24">
                    <mxGeometry relative="1" as="geometry">
                        <mxPoint x="480" y="210" as="targetPoint"/>
                        <mxPoint x="901" y="177" as="sourcePoint"/>
                        <Array as="points">
                            <mxPoint x="901" y="160"/>
                            <mxPoint x="707" y="160"/>
                            <mxPoint x="480" y="160"/>
                        </Array>
                    </mxGeometry>
                </mxCell>
                <mxCell id="_V5K8JmtVgEs9-8B0f6_-24" value="検索結果&lt;div&gt;&lt;br&gt;&lt;/div&gt;&lt;div&gt;TOPへ&lt;/div&gt;" style="whiteSpace=wrap;html=1;" vertex="1" parent="1">
                    <mxGeometry x="841" y="237" width="120" height="60" as="geometry"/>
                </mxCell>
                <mxCell id="_V5K8JmtVgEs9-8B0f6_-25" value="検索&lt;div&gt;(GET)&lt;/div&gt;" style="text;html=1;align=center;verticalAlign=middle;resizable=0;points=[];autosize=1;strokeColor=none;fillColor=none;" vertex="1" parent="1">
                    <mxGeometry x="565" y="231" width="60" height="40" as="geometry"/>
                </mxCell>
                <mxCell id="_V5K8JmtVgEs9-8B0f6_-35" value="" style="edgeStyle=none;html=1;" edge="1" parent="1" source="_V5K8JmtVgEs9-8B0f6_-29" target="_V5K8JmtVgEs9-8B0f6_-15">
                    <mxGeometry relative="1" as="geometry"/>
                </mxCell>
                <mxCell id="_V5K8JmtVgEs9-8B0f6_-29" value="qaList.jsp" style="whiteSpace=wrap;html=1;rounded=1;glass=0;shadow=0;" vertex="1" parent="1">
                    <mxGeometry x="240" y="237" width="120" height="60" as="geometry"/>
                </mxCell>
                <mxCell id="bsg9oruOdnQIcvXcsl58-1" value="" style="edgeStyle=none;html=1;" edge="1" parent="1" source="_V5K8JmtVgEs9-8B0f6_-36" target="_V5K8JmtVgEs9-8B0f6_-24">
                    <mxGeometry relative="1" as="geometry"/>
                </mxCell>
                <mxCell id="_V5K8JmtVgEs9-8B0f6_-36" value="SearchServlet" style="rounded=1;whiteSpace=wrap;html=1;" vertex="1" parent="1">
                    <mxGeometry x="630" y="237" width="120" height="60" as="geometry"/>
                </mxCell>
                <mxCell id="bsg9oruOdnQIcvXcsl58-5" value="" style="edgeStyle=none;html=1;" edge="1" parent="1" source="bsg9oruOdnQIcvXcsl58-6">
                    <mxGeometry relative="1" as="geometry">
                        <mxPoint x="901" y="297" as="targetPoint"/>
                    </mxGeometry>
                </mxCell>
                <mxCell id="bsg9oruOdnQIcvXcsl58-6" value="データベース" style="whiteSpace=wrap;html=1;" vertex="1" parent="1">
                    <mxGeometry x="841" y="400" width="120" height="60" as="geometry"/>
                </mxCell>
                <mxCell id="bsg9oruOdnQIcvXcsl58-7" value="検索結果を取得" style="text;html=1;align=center;verticalAlign=middle;resizable=0;points=[];autosize=1;strokeColor=none;fillColor=none;" vertex="1" parent="1">
                    <mxGeometry x="801" y="340" width="110" height="30" as="geometry"/>
                </mxCell>
            </root>
        </mxGraphModel>
    </diagram>
</mxfile>
